<svg xmlns="http://www.w3.org/2000/svg" width="733.9985" height="80.8994" viewBox="0 0 733.9985 80.8994"><defs><style>.\36 f5a1378-37b0-44b6-97e7-4389e8e5f091{fill:#fff;}</style></defs><title>Ресурс 21</title><g id="026c5857-21b0-4f48-9354-8cd40d9903e2" data-name="Слой 2"><g id="93582998-0500-45cd-aed8-f974b7c47c5e" data-name="Слой 1"><path class="6f5a1378-37b0-44b6-97e7-4389e8e5f091" d="M388.9754,32.3027q8.8433,0,13.9639,5.3536t5.12,14.7558V79.13h-8.6572V52.97q0-6.1436-2.793-9.4023T388.6033,40.31a12.0606,12.0606,0,0,0-9.17,3.6767,13.2961,13.2961,0,0,0-3.4912,9.542V79.13H367.284V52.97q0-6.1436-2.793-9.4023T356.4852,40.31a12.098,12.098,0,0,0-9.1231,3.6767,13.1908,13.1908,0,0,0-3.5381,9.542V79.13h-8.6572V33.1406h7.7266l.0928,5.958a16.5474,16.5474,0,0,1,13.9648-6.7959,18.2646,18.2646,0,0,1,9.2627,2.3282,15.0351,15.0351,0,0,1,6.0977,6.4228Q377.8031,32.3042,388.9754,32.3027Z" transform="translate(0 -19.8281)"/><path class="6f5a1378-37b0-44b6-97e7-4389e8e5f091" d="M436.8807,32.21q11.915,0,18.1533,7.3076,6.2358,7.31,5.3066,20.0625H422.2645a13.2989,13.2989,0,0,0,4.8877,9.3554,16.78,16.78,0,0,0,10.8457,3.3985,22.1919,22.1919,0,0,0,8.0527-1.4893,14.2746,14.2746,0,0,0,5.9111-3.91l5.586,5.3066a21.7442,21.7442,0,0,1-8.5176,5.958A29.4867,29.4867,0,0,1,437.8114,80.34q-11.0787,0-17.78-6.6093-6.7032-6.6095-6.7031-17.5948,0-10.6128,6.5166-17.2695Q426.36,32.2115,436.8807,32.21Zm.2793,7.7265a14.9869,14.9869,0,0,0-9.9141,3.2119,14.5739,14.5739,0,0,0-4.8877,9.0772h29.79a12.8356,12.8356,0,0,0-4.5616-8.9375Q443.5834,39.9365,437.16,39.9365Z" transform="translate(0 -19.8281)"/><path class="6f5a1378-37b0-44b6-97e7-4389e8e5f091" d="M491.741,70.4717l2.5137,7.1689a23.965,23.965,0,0,1-9.7754,2.1407q-14.5224,0-14.5224-15.919V40.6816h-9.03v-7.541h9.03V20.76l8.5644-.9317V33.1406h13.9649v7.541H478.5213V63.8623q0,8.0991,6.9824,8.1A15.9026,15.9026,0,0,0,491.741,70.4717Z" transform="translate(0 -19.8281)"/><path class="6f5a1378-37b0-44b6-97e7-4389e8e5f091" d="M533.95,33.1406h7.6338V79.13H533.95l-.0928-6.7959q-5.8652,7.8193-17.5019,7.82-10.1484,0-16.57-6.7031-6.4248-6.7032-6.4238-17.3155t6.4238-17.3164q6.4233-6.7015,16.57-6.7021,11.6367,0,17.5019,7.8193ZM506.3475,67.68a16.0847,16.0847,0,0,0,22.25,0,15.9,15.9,0,0,0,4.3291-11.544,15.9,15.9,0,0,0-4.3291-11.5439,16.0821,16.0821,0,0,0-22.25,0,15.8992,15.8992,0,0,0-4.3291,11.5439A15.9,15.9,0,0,0,506.3475,67.68Z" transform="translate(0 -19.8281)"/><path class="6f5a1378-37b0-44b6-97e7-4389e8e5f091" d="M575.367,32.1172q10.1456,0,16.5713,6.7021,6.4233,6.7032,6.4229,17.3164t-6.4229,17.3155q-6.4248,6.703-16.5713,6.7031-10.8,0-16.5713-6.7959v27.3691h-8.6572V33.1406h7.7266l.0927,6.7959a18.4038,18.4038,0,0,1,7.2618-5.7246A24.0284,24.0284,0,0,1,575.367,32.1172ZM563.1248,67.68a16.0847,16.0847,0,0,0,22.25,0,15.9,15.9,0,0,0,4.3291-11.544,15.8992,15.8992,0,0,0-4.3291-11.5439,16.0821,16.0821,0,0,0-22.25,0,15.9,15.9,0,0,0-4.3291,11.5439A15.9,15.9,0,0,0,563.1248,67.68Z" transform="translate(0 -19.8281)"/><path class="6f5a1378-37b0-44b6-97e7-4389e8e5f091" d="M638.1121,33.1406H646.77V79.13h-7.7275l-.0928-6.5166q-5.9589,7.355-16.1054,7.3545-8.8448,0-14.15-5.7715t-5.3067-15.5469V33.1406h8.6582v24.95q0,6.6108,3.1651,10.24t8.8437,3.6308a13.4775,13.4775,0,0,0,10.1475-4.05,14.2036,14.2036,0,0,0,3.91-10.2871Z" transform="translate(0 -19.8281)"/><path class="6f5a1378-37b0-44b6-97e7-4389e8e5f091" d="M677.4813,32.3027q6.889,0,11.2646,3.6309l-3.91,7.2617a14.13,14.13,0,0,0-7.8194-2.4209,11.7637,11.7637,0,0,0-9.5429,4.3291q-3.5845,4.3287-3.584,11.4043V79.13h-8.6573V33.1406h7.7266l.0928,7.7276Q668.45,32.3032,677.4813,32.3027Z" transform="translate(0 -19.8281)"/><path class="6f5a1378-37b0-44b6-97e7-4389e8e5f091" d="M710.4178,32.21q11.9151,0,18.1533,7.3076,6.2358,7.31,5.3067,20.0625H695.8016a13.2989,13.2989,0,0,0,4.8877,9.3554A16.78,16.78,0,0,0,711.535,72.334a22.1915,22.1915,0,0,0,8.0527-1.4893,14.2757,14.2757,0,0,0,5.9112-3.91l5.5859,5.3066a21.7442,21.7442,0,0,1-8.5176,5.958A29.4867,29.4867,0,0,1,711.3485,80.34q-11.0787,0-17.78-6.6093-6.7032-6.6095-6.7031-17.5948,0-10.6128,6.5166-17.2695Q699.8973,32.2115,710.4178,32.21Zm.2793,7.7265a14.9869,14.9869,0,0,0-9.9141,3.2119,14.5744,14.5744,0,0,0-4.8877,9.0772h29.79a12.8359,12.8359,0,0,0-4.5615-8.9375Q717.12,39.9365,710.6971,39.9365Z" transform="translate(0 -19.8281)"/><path class="6f5a1378-37b0-44b6-97e7-4389e8e5f091" d="M289.7157,25.8337h-24.709V37.1991h24.709a14.3387,14.3387,0,0,1,14.2875,13.3433v1.94h11.3653v-1.94A25.7111,25.7111,0,0,0,289.7157,25.8337Z" transform="translate(0 -19.8281)"/><path class="6f5a1378-37b0-44b6-97e7-4389e8e5f091" d="M289.7157,79.13h-24.709V67.7648h24.709a14.3387,14.3387,0,0,0,14.2875-13.3434V52.4819h11.3653v1.9395A25.7112,25.7112,0,0,1,289.7157,79.13Z" transform="translate(0 -19.8281)"/><path class="6f5a1378-37b0-44b6-97e7-4389e8e5f091" d="M25.6528,79.13h24.709V67.7648H25.6528A14.3387,14.3387,0,0,1,11.3653,54.4214V52.4819H0v1.9395A25.7112,25.7112,0,0,0,25.6528,79.13Z" transform="translate(0 -19.8281)"/><path class="6f5a1378-37b0-44b6-97e7-4389e8e5f091" d="M25.6528,25.8337h24.709V37.1991H25.6528A14.3387,14.3387,0,0,0,11.3653,50.5424v1.94H0v-1.94A25.7111,25.7111,0,0,1,25.6528,25.8337Z" transform="translate(0 -19.8281)"/><rect class="6f5a1378-37b0-44b6-97e7-4389e8e5f091" x="50.3618" y="47.9366" width="214.645" height="11.3654"/><rect class="6f5a1378-37b0-44b6-97e7-4389e8e5f091" x="50.3618" y="6.0056" width="214.645" height="11.3654"/></g></g></svg>