<svg xmlns="http://www.w3.org/2000/svg" width="410.0596" height="410.06" viewBox="0 0 410.0596 410.06"><defs><style>.\35 49eb251-0092-402f-b51e-722d91be361a{fill:#1ed760;}</style></defs><title>Ресурс 23</title><g id="b2021d60-eb44-41ec-bb5d-4f94a84d8810" data-name="Слой 2"><g id="72a13d69-1e1f-4af1-b322-c4e28c48897a" data-name="Слой 1"><path class="549eb251-0092-402f-b51e-722d91be361a" d="M239.76,205.03a34.6851,34.6851,0,1,1-34.68-34.68A34.6858,34.6858,0,0,1,239.76,205.03Z"/><path class="549eb251-0092-402f-b51e-722d91be361a" d="M205.03,0C91.8,0,0,91.8,0,205.03,0,318.27,91.8,410.06,205.03,410.06S410.06,318.27,410.06,205.03C410.06,91.8,318.26,0,205.03,0Zm35.71,290.19a32.8139,32.8139,0,0,0,44.74,1.53l3.1494-3.15,3.1406-3.13a32.8365,32.8365,0,0,0-1.53-44.75l-7.3-7.29L301.35,215l7.3008,7.28a58.9114,58.9114,0,0,1,1.5293,81.57l-3.1494,3.14-3.1407,3.14a58.8766,58.8766,0,0,1-81.55-1.53l-35.66-35.66-4.3594-4.36-2.7607-2.75L141.53,227.8l-4.36-4.35-17.25,17.24a32.8266,32.8266,0,0,0-1.53,44.75l3.1407,3.13,3.13,3.15a32.8382,32.8382,0,0,0,44.76-1.53l7.33-7.33,18.41,18.41-7.33,7.33a58.9021,58.9021,0,0,1-81.57,1.53l-3.13-3.14-3.1494-3.14a58.9114,58.9114,0,0,1,1.5293-81.57l13.4-13.39.04.04,3.8594-3.85,18.41-18.42L147.53,176.35l-.04-.05,39.19-39.18-17.26-17.25a32.8587,32.8587,0,0,0-44.76-1.53l-3.13,3.14-3.1407,3.15a32.8139,32.8139,0,0,0,1.53,44.74l7.37,7.37-18.41,18.42-7.37-7.37a58.9114,58.9114,0,0,1-1.5293-81.57l3.1494-3.14,3.13-3.15a58.9021,58.9021,0,0,1,81.57,1.53l40.02,40.03,40.77,40.78,4.37,4.35,17.25-17.25a32.8238,32.8238,0,0,0,1.53-44.74l-3.1406-3.15-3.1494-3.14a32.8344,32.8344,0,0,0-44.74,1.53l-7.27,7.27-18.41-18.41,7.28-7.27a58.8766,58.8766,0,0,1,81.55-1.53l6.29,6.29a58.9114,58.9114,0,0,1-1.5293,81.57L291.39,205.04,272.99,223.43l-4.37,4.37-40.77,40.78-4.3594,4.37Z"/></g></g></svg>