<svg xmlns="http://www.w3.org/2000/svg" width="734.0006" height="80.8994" viewBox="0 0 734.0006 80.8994"><defs><style>.fc7a16dc-a69e-49fd-816a-902f69d8c22a{fill:#26292f;}</style></defs><title>Ресурс 29</title><g id="1e20a62c-2c29-4e5d-ab5e-67b724e8a037" data-name="Слой 2"><g id="81583038-eb4c-46ec-8a24-a547241e1dde" data-name="Слой 1"><path class="fc7a16dc-a69e-49fd-816a-902f69d8c22a" d="M388.9775,32.3027q8.8432,0,13.9639,5.3536t5.12,14.7558V79.13h-8.6572V52.97q0-6.1436-2.793-9.4023T388.6055,40.31a12.0608,12.0608,0,0,0-9.17,3.6767,13.2961,13.2961,0,0,0-3.4912,9.542V79.13h-8.6582V52.97q0-6.1436-2.7929-9.4023T356.4873,40.31a12.0977,12.0977,0,0,0-9.123,3.6767,13.19,13.19,0,0,0-3.5381,9.542V79.13h-8.6573V33.1406h7.7266l.0928,5.958a16.5476,16.5476,0,0,1,13.9648-6.7959,18.2646,18.2646,0,0,1,9.2627,2.3282,15.0345,15.0345,0,0,1,6.0977,6.4228Q377.8052,32.3042,388.9775,32.3027Z" transform="translate(0 -19.8281)"/><path class="fc7a16dc-a69e-49fd-816a-902f69d8c22a" d="M436.8828,32.21q11.9151,0,18.1533,7.3076,6.236,7.31,5.3067,20.0625H422.2666a13.2989,13.2989,0,0,0,4.8877,9.3554A16.78,16.78,0,0,0,438,72.334a22.1911,22.1911,0,0,0,8.0527-1.4893,14.275,14.275,0,0,0,5.9112-3.91l5.5859,5.3066a21.7434,21.7434,0,0,1-8.5176,5.958A29.4864,29.4864,0,0,1,437.8135,80.34q-11.0787,0-17.78-6.6093T413.33,56.1357q0-10.6128,6.5166-17.2695Q426.3623,32.2115,436.8828,32.21Zm.2793,7.7265a14.9872,14.9872,0,0,0-9.9141,3.2119,14.5738,14.5738,0,0,0-4.8876,9.0772h29.79a12.8359,12.8359,0,0,0-4.5615-8.9375Q443.5854,39.9365,437.1621,39.9365Z" transform="translate(0 -19.8281)"/><path class="fc7a16dc-a69e-49fd-816a-902f69d8c22a" d="M491.7432,70.4717l2.5136,7.1689a23.965,23.965,0,0,1-9.7754,2.1407q-14.5224,0-14.5224-15.919V40.6816h-9.03v-7.541h9.03V20.76l8.5644-.9317V33.1406h13.9649v7.541H478.5234V63.8623q0,8.0991,6.9825,8.1A15.9029,15.9029,0,0,0,491.7432,70.4717Z" transform="translate(0 -19.8281)"/><path class="fc7a16dc-a69e-49fd-816a-902f69d8c22a" d="M533.9521,33.1406h7.6338V79.13h-7.6338l-.0927-6.7959q-5.8653,7.8193-17.502,7.82-10.1484,0-16.57-6.7031-6.4248-6.7032-6.4238-17.3155t6.4238-17.3164q6.4233-6.7015,16.57-6.7021,11.6367,0,17.502,7.8193ZM506.35,67.68a16.0847,16.0847,0,0,0,22.25,0,15.9,15.9,0,0,0,4.3291-11.544A15.8992,15.8992,0,0,0,528.6,44.5918a16.0821,16.0821,0,0,0-22.25,0,15.9,15.9,0,0,0-4.3291,11.5439A15.9,15.9,0,0,0,506.35,67.68Z" transform="translate(0 -19.8281)"/><path class="fc7a16dc-a69e-49fd-816a-902f69d8c22a" d="M575.3691,32.1172q10.1455,0,16.5713,6.7021,6.4235,6.7032,6.4229,17.3164T591.94,73.4512q-6.4248,6.703-16.5713,6.7031-10.8,0-16.5712-6.7959v27.3691h-8.6573V33.1406h7.7266l.0928,6.7959a18.4035,18.4035,0,0,1,7.2617-5.7246A24.0284,24.0284,0,0,1,575.3691,32.1172ZM563.127,67.68a16.0847,16.0847,0,0,0,22.25,0,15.9,15.9,0,0,0,4.3291-11.544,15.9,15.9,0,0,0-4.3291-11.5439,16.0821,16.0821,0,0,0-22.25,0,15.8992,15.8992,0,0,0-4.3291,11.5439A15.9,15.9,0,0,0,563.127,67.68Z" transform="translate(0 -19.8281)"/><path class="fc7a16dc-a69e-49fd-816a-902f69d8c22a" d="M638.1143,33.1406h8.6582V79.13h-7.7276l-.0928-6.5166q-5.9589,7.355-16.1054,7.3545-8.8448,0-14.15-5.7715T603.39,58.6494V33.1406h8.6583v24.95q0,6.6108,3.165,10.24t8.8437,3.6308a13.4773,13.4773,0,0,0,10.1475-4.05,14.2036,14.2036,0,0,0,3.91-10.2871Z" transform="translate(0 -19.8281)"/><path class="fc7a16dc-a69e-49fd-816a-902f69d8c22a" d="M677.4834,32.3027q6.8892,0,11.2646,3.6309l-3.91,7.2617a14.13,14.13,0,0,0-7.8193-2.4209,11.7639,11.7639,0,0,0-9.543,4.3291q-3.5845,4.3287-3.584,11.4043V79.13h-8.6572V33.1406h7.7265l.0928,7.7276Q668.4516,32.3032,677.4834,32.3027Z" transform="translate(0 -19.8281)"/><path class="fc7a16dc-a69e-49fd-816a-902f69d8c22a" d="M710.42,32.21q11.9151,0,18.1533,7.3076,6.236,7.31,5.3067,20.0625H695.8037a13.2989,13.2989,0,0,0,4.8877,9.3554,16.78,16.78,0,0,0,10.8457,3.3985,22.1911,22.1911,0,0,0,8.0527-1.4893,14.275,14.275,0,0,0,5.9112-3.91l5.5859,5.3066a21.7434,21.7434,0,0,1-8.5176,5.958A29.4864,29.4864,0,0,1,711.3506,80.34q-11.0787,0-17.78-6.6093t-6.7031-17.5948q0-10.6128,6.5166-17.2695Q699.8993,32.2115,710.42,32.21Zm.2793,7.7265a14.9868,14.9868,0,0,0-9.914,3.2119,14.5735,14.5735,0,0,0-4.8877,9.0772h29.79a12.8359,12.8359,0,0,0-4.5615-8.9375Q717.1225,39.9365,710.6992,39.9365Z" transform="translate(0 -19.8281)"/><path class="fc7a16dc-a69e-49fd-816a-902f69d8c22a" d="M289.72,25.8355H25.65A25.7116,25.7116,0,0,0,0,50.5454v3.88a25.71,25.71,0,0,0,25.65,24.7H289.72a25.71,25.71,0,0,0,25.65-24.7v-3.88A25.7116,25.7116,0,0,0,289.72,25.8355Zm14.29,28.59a14.35,14.35,0,0,1-14.29,13.34H25.65a14.3339,14.3339,0,0,1-14.28-13.34v-3.88a14.3351,14.3351,0,0,1,14.28-13.35H289.72a14.351,14.351,0,0,1,14.29,13.35Z" transform="translate(0 -19.8281)"/></g></g></svg>