<svg xmlns="http://www.w3.org/2000/svg" width="529.6525" height="102.2562" viewBox="0 0 529.6525 102.2562"><defs><style>.f1e8c12d-6b79-411e-9901-cc080813be4b{fill:#fff;}</style></defs><title>Ресурс 28</title><g id="573dc97a-7cb0-4be0-89b8-00441fced58b" data-name="Слой 2"><g id="da879c43-25dc-41cd-bbf2-394317d7a431" data-name="Слой 1"><path class="f1e8c12d-6b79-411e-9901-cc080813be4b" d="M184.63,32.3027q8.8433,0,13.9638,5.3536t5.12,14.7558V79.13h-8.6573V52.97q0-6.1436-2.7929-9.4023T184.2574,40.31a12.06,12.06,0,0,0-9.17,3.6767,13.2957,13.2957,0,0,0-3.4912,9.542V79.13h-8.6582V52.97q0-6.1436-2.793-9.4023T152.1392,40.31a12.0977,12.0977,0,0,0-9.123,3.6767,13.19,13.19,0,0,0-3.5381,9.542V79.13h-8.6572V33.1406h7.7265l.0928,5.958a16.5477,16.5477,0,0,1,13.9649-6.7959,18.2646,18.2646,0,0,1,9.2627,2.3282,15.0348,15.0348,0,0,1,6.0976,6.4228Q173.457,32.3042,184.63,32.3027Z" transform="translate(0 -3.4684)"/><path class="f1e8c12d-6b79-411e-9901-cc080813be4b" d="M232.5347,32.21q11.9151,0,18.1534,7.3076,6.2358,7.31,5.3066,20.0625H217.9185a13.2989,13.2989,0,0,0,4.8877,9.3554,16.78,16.78,0,0,0,10.8457,3.3985,22.1921,22.1921,0,0,0,8.0528-1.4893,14.2746,14.2746,0,0,0,5.9111-3.91l5.5859,5.3066a21.7438,21.7438,0,0,1-8.5175,5.958A29.4873,29.4873,0,0,1,233.4654,80.34q-11.0785,0-17.78-6.6093T208.982,56.1357q0-10.6128,6.5166-17.2695Q222.0143,32.2115,232.5347,32.21Zm.2793,7.7265a14.9868,14.9868,0,0,0-9.914,3.2119,14.5735,14.5735,0,0,0-4.8877,9.0772h29.79a12.8351,12.8351,0,0,0-4.5615-8.9375Q239.2375,39.9365,232.814,39.9365Z" transform="translate(0 -3.4684)"/><path class="f1e8c12d-6b79-411e-9901-cc080813be4b" d="M287.3951,70.4717l2.5137,7.1689a23.9657,23.9657,0,0,1-9.7754,2.1407q-14.5225,0-14.5225-15.919V40.6816h-9.03v-7.541h9.03V20.76l8.5645-.9317V33.1406H288.14v7.541H274.1754V63.8623q0,8.0991,6.9824,8.1A15.9029,15.9029,0,0,0,287.3951,70.4717Z" transform="translate(0 -3.4684)"/><path class="f1e8c12d-6b79-411e-9901-cc080813be4b" d="M329.6041,33.1406h7.6338V79.13h-7.6338l-.0928-6.7959q-5.8651,7.8193-17.5019,7.82-10.1486,0-16.57-6.7031-6.4248-6.7032-6.4238-17.3155t6.4238-17.3164q6.4234-6.7015,16.57-6.7021,11.6367,0,17.5019,7.8193ZM302.0015,67.68a16.0847,16.0847,0,0,0,22.25,0,15.9,15.9,0,0,0,4.3291-11.544,15.8992,15.8992,0,0,0-4.3291-11.5439,16.0821,16.0821,0,0,0-22.25,0,15.9,15.9,0,0,0-4.3291,11.5439A15.9,15.9,0,0,0,302.0015,67.68Z" transform="translate(0 -3.4684)"/><path class="f1e8c12d-6b79-411e-9901-cc080813be4b" d="M371.0211,32.1172q10.1454,0,16.5713,6.7021,6.4233,6.7032,6.4228,17.3164t-6.4228,17.3155q-6.4248,6.703-16.5713,6.7031-10.8,0-16.5713-6.7959v27.3691h-8.6572V33.1406h7.7265l.0928,6.7959a18.4035,18.4035,0,0,1,7.2617-5.7246A24.0289,24.0289,0,0,1,371.0211,32.1172ZM358.7789,67.68a16.0847,16.0847,0,0,0,22.25,0,15.9,15.9,0,0,0,4.3291-11.544,15.9,15.9,0,0,0-4.3291-11.5439,16.0821,16.0821,0,0,0-22.25,0A15.8992,15.8992,0,0,0,354.45,56.1357,15.9,15.9,0,0,0,358.7789,67.68Z" transform="translate(0 -3.4684)"/><path class="f1e8c12d-6b79-411e-9901-cc080813be4b" d="M433.7662,33.1406h8.6582V79.13h-7.7275l-.0928-6.5166q-5.9591,7.355-16.1055,7.3545-8.8447,0-14.15-5.7715t-5.3066-15.5469V33.1406H407.7v24.95q0,6.6108,3.165,10.24t8.8438,3.6308a13.4771,13.4771,0,0,0,10.1474-4.05,14.2032,14.2032,0,0,0,3.91-10.2871Z" transform="translate(0 -3.4684)"/><path class="f1e8c12d-6b79-411e-9901-cc080813be4b" d="M473.1353,32.3027q6.8892,0,11.2647,3.6309l-3.91,7.2617a14.13,14.13,0,0,0-7.8193-2.4209,11.7639,11.7639,0,0,0-9.543,4.3291q-3.5844,4.3287-3.584,11.4043V79.13h-8.6572V33.1406h7.7266l.0927,7.7276Q464.1037,32.3032,473.1353,32.3027Z" transform="translate(0 -3.4684)"/><path class="f1e8c12d-6b79-411e-9901-cc080813be4b" d="M506.0719,32.21q11.9149,0,18.1533,7.3076,6.2358,7.31,5.3066,20.0625H491.4556a13.2989,13.2989,0,0,0,4.8877,9.3554A16.78,16.78,0,0,0,507.189,72.334a22.1921,22.1921,0,0,0,8.0528-1.4893,14.2746,14.2746,0,0,0,5.9111-3.91l5.5859,5.3066a21.7431,21.7431,0,0,1-8.5175,5.958A29.4869,29.4869,0,0,1,507.0025,80.34q-11.0786,0-17.78-6.6093t-6.7031-17.5948q0-10.6128,6.5166-17.2695Q495.5514,32.2115,506.0719,32.21Zm.2793,7.7265a14.9869,14.9869,0,0,0-9.9141,3.2119,14.5735,14.5735,0,0,0-4.8877,9.0772h29.79a12.8351,12.8351,0,0,0-4.5615-8.9375Q512.7746,39.9365,506.3512,39.9365Z" transform="translate(0 -3.4684)"/><path class="f1e8c12d-6b79-411e-9901-cc080813be4b" d="M91.887,58.8158l-7.793,7.7931,3.0912,3.085a13.9119,13.9119,0,0,1,.6478,18.95L86.5017,89.97,85.17,91.3016a13.8991,13.8991,0,0,1-18.9446-.648l-7.3056-7.3,1.8489-1.8486L78.031,64.2369,79.88,62.3883l7.7929-7.7871,7.3056-7.3055a24.9383,24.9383,0,0,0,.6479-34.5364l-2.6628-2.6631a24.9313,24.9313,0,0,0-34.5307.648l-3.0793,3.0791,7.7932,7.7931,3.079-3.0793A13.911,13.911,0,0,1,85.17,17.8893l1.3317,1.3314,1.3313,1.3316a13.9044,13.9044,0,0,1-.6478,18.9445L79.88,46.8024,78.031,44.96,60.7687,27.6913,43.8213,10.7442a24.9384,24.9384,0,0,0-34.5365-.648L7.96,11.4278,6.6279,12.7593a24.9382,24.9382,0,0,0,.6478,34.5364l3.1208,3.1207L18.19,42.6176l-3.1208-3.1208a13.8986,13.8986,0,0,1-.6481-18.9445l1.3317-1.3316,1.3255-1.3314a13.9184,13.9184,0,0,1,18.95.6478l7.3056,7.3056L26.7433,42.4332l.018.0179L22.3922,46.82l-7.7929,7.7989-1.6347,1.6287-.018-.0177L7.2757,61.9009a24.9383,24.9383,0,0,0-.6478,34.5365L7.96,97.7689l1.3253,1.3256a24.9326,24.9326,0,0,0,34.5365-.6479l3.1031-3.103-7.7932-7.7929-3.1028,3.1029a13.9065,13.9065,0,0,1-18.95.648L15.7525,89.97l-1.3317-1.3256a13.906,13.906,0,0,1,.6481-18.95l7.3056-7.3,1.8425,1.8426L40.32,80.34l1.1712,1.1652L43.334,83.348l7.7929,7.793,2.99,2.99,4.3154,4.3157a24.9254,24.9254,0,0,0,34.5307.6479l1.3314-1.3256,1.3314-1.3315a24.9384,24.9384,0,0,0-.6479-34.5365Zm-40.76,10.468A14.6855,14.6855,0,1,1,65.81,54.5954,14.6861,14.6861,0,0,1,51.1269,69.2838Z" transform="translate(0 -3.4684)"/></g></g></svg>