<svg xmlns="http://www.w3.org/2000/svg" width="485.6018" height="147.9111" viewBox="0 0 485.6018 147.9111"><defs><style>.a6bdfde3-6ae9-4186-91d4-c0d34fdf36b7{fill:#fff;}</style></defs><title>Ресурс 13</title><g id="41f1025c-2e26-4486-a241-70c00e2ea53c" data-name="Слой 2"><g id="084cbd1a-0620-4bcc-a363-d4832f6efd15" data-name="Слой 1"><rect width="485.6018" height="147.9111" rx="21.2074" ry="21.2074"/><path class="a6bdfde3-6ae9-4186-91d4-c0d34fdf36b7" d="M157.2671,80.8809a9.8844,9.8844,0,0,0,3.9609,6.3,12.7164,12.7164,0,0,0,7.5586,2.1963q6.1934,0,9.2891-4.4639l6.4082,3.7437q-5.3292,7.8486-15.7686,7.8481-8.7846,0-14.1846-5.3642a18.328,18.328,0,0,1-5.3994-13.5718,18.5221,18.5221,0,0,1,5.3282-13.5,18.3234,18.3234,0,0,1,13.68-5.4361,16.8349,16.8349,0,0,1,12.9961,5.544A19.2235,19.2235,0,0,1,186.21,77.6407a24.108,24.108,0,0,1-.2871,3.24Zm-.0723-6.3359h21.168a10.0088,10.0088,0,0,0-10.2949-8.856,10.9387,10.9387,0,0,0-7.2012,2.376A10.72,10.72,0,0,0,157.1948,74.545Z"/><path class="a6bdfde3-6ae9-4186-91d4-c0d34fdf36b7" d="M211.9878,67.0567H203.06v17.28a4.3006,4.3006,0,0,0,1.0079,3.2042,4.5138,4.5138,0,0,0,2.9882,1.0795,48.8932,48.8932,0,0,0,4.9317-.0356v6.9839q-8.93,1.08-12.8164-1.5479t-3.8887-9.6841v-17.28H188.66V59.5689h6.623V51.793l7.7773-2.3042v10.08h8.9278Z"/><path class="a6bdfde3-6ae9-4186-91d4-c0d34fdf36b7" d="M246.1147,59.5689H253.89v36h-7.7754V90.3848q-4.3946,6.1209-12.6,6.12a16.8783,16.8783,0,0,1-12.6719-5.5078,18.7211,18.7211,0,0,1-5.2578-13.4282,18.6874,18.6874,0,0,1,5.2578-13.4639,16.9324,16.9324,0,0,1,12.6719-5.4722q8.2061,0,12.6,6.0479ZM226.603,85.813a11.7406,11.7406,0,0,0,16.2715,0,12.108,12.108,0,0,0,0-16.4883,11.7408,11.7408,0,0,0-16.2715,0,12.108,12.108,0,0,0,0,16.4883Z"/><path class="a6bdfde3-6ae9-4186-91d4-c0d34fdf36b7" d="M283.3374,58.6328a16.8844,16.8844,0,0,1,12.6719,5.5079,18.7287,18.7287,0,0,1,5.2558,13.4282,18.6908,18.6908,0,0,1-5.2558,13.4638,16.9345,16.9345,0,0,1-12.6719,5.4722q-8.2061,0-12.6-6.0478v19.5117h-7.7754v-50.4h7.7754V64.753Q275.1294,58.6344,283.3374,58.6328Zm-9.3594,27.18a11.7406,11.7406,0,0,0,16.2715,0,12.108,12.108,0,0,0,0-16.4883,11.7408,11.7408,0,0,0-16.2715,0,12.108,12.108,0,0,0,0,16.4883Z"/><path class="a6bdfde3-6ae9-4186-91d4-c0d34fdf36b7" d="M332.5854,59.5689h7.7754v36h-7.7754V90.961q-3.53,5.5451-11.16,5.5439a13.2633,13.2633,0,0,1-10.0078-3.96q-3.8175-3.9588-3.8164-10.8721V59.5689h7.7753v21.312a8.38,8.38,0,0,0,2.16,6.1919,7.9811,7.9811,0,0,0,5.9043,2.16,8.89,8.89,0,0,0,6.625-2.5561q2.52-2.5547,2.5195-7.812Z"/><path class="a6bdfde3-6ae9-4186-91d4-c0d34fdf36b7" d="M357.2085,65.6167q2.9531-6.6957,11.09-6.6958v8.4239a11.5356,11.5356,0,0,0-7.7773,2.124q-3.3107,2.4133-3.3125,7.956V95.5689h-7.7754v-36h7.7754Z"/><path class="a6bdfde3-6ae9-4186-91d4-c0d34fdf36b7" d="M378.521,80.8809a9.8848,9.8848,0,0,0,3.9609,6.3,12.7164,12.7164,0,0,0,7.5586,2.1963q6.1933,0,9.2891-4.4639l6.4082,3.7437q-5.3292,7.8486-15.77,7.8481-8.7831,0-14.1835-5.3642a18.3284,18.3284,0,0,1-5.4-13.5718,18.5224,18.5224,0,0,1,5.3281-13.5,18.3263,18.3263,0,0,1,13.6816-5.4361,16.8377,16.8377,0,0,1,12.9961,5.544,19.2272,19.2272,0,0,1,5.0742,13.4639,24.108,24.108,0,0,1-.2871,3.24Zm-.0723-6.3359h21.168a10.0088,10.0088,0,0,0-10.2949-8.856,10.9387,10.9387,0,0,0-7.2012,2.376A10.7155,10.7155,0,0,0,378.4487,74.545Z"/><path class="a6bdfde3-6ae9-4186-91d4-c0d34fdf36b7" d="M142.0527,76.4638v19.11h-8.79v-19.11a11.09,11.09,0,0,0-10.32-11.05h-1.5v-8.79h1.5A19.8847,19.8847,0,0,1,142.0527,76.4638Z"/><path class="a6bdfde3-6ae9-4186-91d4-c0d34fdf36b7" d="M120.083,76.4638v19.11h-8.79v-19.11a11.09,11.09,0,0,0-10.32-11.05h-1.5v-8.79h1.5A19.8851,19.8851,0,0,1,120.083,76.4638Z"/><rect class="a6bdfde3-6ae9-4186-91d4-c0d34fdf36b7" x="90.6831" y="77.2138" width="8.79" height="18.36"/><rect class="a6bdfde3-6ae9-4186-91d4-c0d34fdf36b7" x="81.9668" y="56.6284" width="8.79" height="8.79"/><rect class="a6bdfde3-6ae9-4186-91d4-c0d34fdf36b7" x="64.3668" y="56.6284" width="8.79" height="8.79"/></g></g></svg>